<svg width="1903" height="80" viewBox="0 0 1903 80" fill="none" xmlns="http://www.w3.org/2000/svg">
<rect width="1903" height="79.2" fill="#25292F"/>
<rect x="399" y="52.5" width="35" height="2" fill="#B5995A"/>
<path d="M405.328 45.5V45.18C405.68 45.1587 405.941 45.116 406.112 45.052C406.293 44.988 406.411 44.86 406.464 44.668C406.528 44.476 406.56 44.188 406.56 43.804V35.868C406.56 35.4733 406.528 35.1853 406.464 35.004C406.411 34.812 406.293 34.684 406.112 34.62C405.941 34.5453 405.68 34.5027 405.328 34.492V34.172C405.616 34.1827 405.973 34.1933 406.4 34.204C406.827 34.2147 407.253 34.22 407.68 34.22C408.149 34.22 408.587 34.2147 408.992 34.204C409.408 34.1933 409.739 34.1827 409.984 34.172V34.492C409.643 34.5027 409.381 34.5453 409.2 34.62C409.029 34.684 408.912 34.812 408.848 35.004C408.784 35.1853 408.752 35.4733 408.752 35.868V43.804C408.752 44.188 408.784 44.476 408.848 44.668C408.912 44.86 409.029 44.988 409.2 45.052C409.381 45.116 409.643 45.1587 409.984 45.18V45.5C409.739 45.4787 409.408 45.468 408.992 45.468C408.587 45.4573 408.149 45.452 407.68 45.452C407.253 45.452 406.827 45.4573 406.4 45.468C405.973 45.468 405.616 45.4787 405.328 45.5ZM398.576 45.5V45.18C398.928 45.1587 399.189 45.116 399.36 45.052C399.541 44.988 399.659 44.86 399.712 44.668C399.776 44.476 399.808 44.188 399.808 43.804V35.868C399.808 35.4733 399.776 35.1853 399.712 35.004C399.659 34.812 399.541 34.684 399.36 34.62C399.189 34.5453 398.928 34.5027 398.576 34.492V34.172C398.843 34.1827 399.184 34.1933 399.6 34.204C400.016 34.2147 400.464 34.22 400.944 34.22C401.371 34.22 401.792 34.2147 402.208 34.204C402.624 34.1933 402.965 34.1827 403.232 34.172V34.492C402.891 34.5027 402.629 34.5453 402.448 34.62C402.277 34.684 402.16 34.812 402.096 35.004C402.032 35.1853 402 35.4733 402 35.868V43.804C402 44.188 402.032 44.476 402.096 44.668C402.16 44.86 402.277 44.988 402.448 45.052C402.629 45.116 402.891 45.1587 403.232 45.18V45.5C402.965 45.4787 402.624 45.468 402.208 45.468C401.792 45.4573 401.371 45.452 400.944 45.452C400.464 45.452 400.016 45.4573 399.6 45.468C399.184 45.468 398.843 45.4787 398.576 45.5ZM401.12 39.964V39.644H407.44V39.964H401.12ZM414.761 37.004C415.497 37.004 416.148 37.1533 416.713 37.452C417.289 37.74 417.743 38.204 418.073 38.844C418.415 39.484 418.585 40.3267 418.585 41.372C418.585 42.4173 418.415 43.26 418.073 43.9C417.743 44.54 417.289 45.004 416.713 45.292C416.148 45.58 415.497 45.724 414.761 45.724C414.025 45.724 413.369 45.58 412.793 45.292C412.217 45.004 411.764 44.54 411.433 43.9C411.103 43.26 410.937 42.4173 410.937 41.372C410.937 40.3267 411.103 39.484 411.433 38.844C411.764 38.204 412.217 37.74 412.793 37.452C413.369 37.1533 414.025 37.004 414.761 37.004ZM414.761 37.324C414.26 37.324 413.849 37.644 413.529 38.284C413.22 38.9133 413.065 39.9427 413.065 41.372C413.065 42.8013 413.22 43.8307 413.529 44.46C413.849 45.0893 414.26 45.404 414.761 45.404C415.252 45.404 415.657 45.0893 415.977 44.46C416.297 43.8307 416.457 42.8013 416.457 41.372C416.457 39.9427 416.297 38.9133 415.977 38.284C415.657 37.644 415.252 37.324 414.761 37.324ZM425.267 37.004C425.683 37.004 426.029 37.0627 426.307 37.18C426.595 37.2973 426.819 37.4467 426.979 37.628C427.171 37.8307 427.304 38.1027 427.379 38.444C427.453 38.7747 427.491 39.196 427.491 39.708V44.012C427.491 44.46 427.565 44.764 427.715 44.924C427.875 45.084 428.141 45.164 428.515 45.164V45.5C428.323 45.4893 428.035 45.4787 427.651 45.468C427.267 45.4467 426.893 45.436 426.531 45.436C426.147 45.436 425.773 45.4467 425.411 45.468C425.059 45.4787 424.792 45.4893 424.611 45.5V45.164C424.92 45.164 425.139 45.084 425.267 44.924C425.405 44.764 425.475 44.46 425.475 44.012V39.164C425.475 38.876 425.453 38.62 425.411 38.396C425.368 38.1613 425.277 37.98 425.139 37.852C425 37.7133 424.787 37.644 424.499 37.644C424.168 37.644 423.869 37.74 423.603 37.932C423.336 38.124 423.123 38.3907 422.963 38.732C422.813 39.0627 422.739 39.436 422.739 39.852V44.012C422.739 44.46 422.803 44.764 422.931 44.924C423.059 45.084 423.283 45.164 423.603 45.164V45.5C423.421 45.4893 423.155 45.4787 422.803 45.468C422.461 45.4467 422.109 45.436 421.747 45.436C421.352 45.436 420.952 45.4467 420.547 45.468C420.141 45.4787 419.837 45.4893 419.635 45.5V45.164C420.029 45.164 420.307 45.084 420.467 44.924C420.637 44.764 420.723 44.46 420.723 44.012V38.972C420.723 38.492 420.643 38.14 420.483 37.916C420.333 37.6813 420.051 37.564 419.635 37.564V37.228C419.976 37.26 420.307 37.276 420.627 37.276C421.021 37.276 421.395 37.26 421.747 37.228C422.109 37.1853 422.44 37.1267 422.739 37.052V38.652C423.005 38.0653 423.363 37.644 423.811 37.388C424.259 37.132 424.744 37.004 425.267 37.004ZM430.083 37.004C430.499 37.004 430.845 37.0627 431.123 37.18C431.411 37.2973 431.635 37.4467 431.795 37.628C431.987 37.8307 432.12 38.1027 432.195 38.444C432.269 38.7747 432.307 39.196 432.307 39.708V44.012C432.307 44.46 432.387 44.764 432.547 44.924C432.717 45.084 433 45.164 433.395 45.164V45.5C433.203 45.4893 432.904 45.4787 432.499 45.468C432.104 45.4467 431.72 45.436 431.347 45.436C430.963 45.436 430.589 45.4467 430.227 45.468C429.875 45.4787 429.608 45.4893 429.427 45.5V45.164C429.736 45.164 429.955 45.084 430.083 44.924C430.221 44.764 430.291 44.46 430.291 44.012V39.164C430.291 38.876 430.264 38.62 430.211 38.396C430.168 38.1613 430.072 37.98 429.923 37.852C429.773 37.7133 429.549 37.644 429.251 37.644C428.92 37.644 428.621 37.7453 428.355 37.948C428.088 38.1507 427.875 38.4227 427.715 38.764C427.565 39.0947 427.485 39.468 427.475 39.884L427.395 38.732C427.683 38.0707 428.067 37.6173 428.547 37.372C429.027 37.1267 429.539 37.004 430.083 37.004ZM438.057 37.004C438.996 37.004 439.732 37.2867 440.265 37.852C440.799 38.4173 441.065 39.3187 441.065 40.556H435.673L435.657 40.252H439.209C439.231 39.7293 439.199 39.2493 439.113 38.812C439.028 38.364 438.889 38.0067 438.697 37.74C438.516 37.4733 438.276 37.34 437.977 37.34C437.572 37.34 437.22 37.58 436.921 38.06C436.623 38.5293 436.436 39.3027 436.361 40.38L436.425 40.476C436.404 40.6147 436.388 40.764 436.377 40.924C436.377 41.084 436.377 41.244 436.377 41.404C436.377 42.14 436.484 42.748 436.697 43.228C436.911 43.708 437.188 44.06 437.529 44.284C437.871 44.508 438.223 44.62 438.585 44.62C438.831 44.62 439.081 44.5827 439.337 44.508C439.593 44.4333 439.844 44.2947 440.089 44.092C440.335 43.8893 440.559 43.6013 440.761 43.228L441.065 43.356C440.948 43.7293 440.751 44.1027 440.473 44.476C440.207 44.8387 439.86 45.1373 439.433 45.372C439.007 45.6067 438.505 45.724 437.929 45.724C437.204 45.724 436.564 45.564 436.009 45.244C435.455 44.924 435.023 44.4493 434.713 43.82C434.404 43.18 434.249 42.4013 434.249 41.484C434.249 40.5133 434.409 39.6973 434.729 39.036C435.06 38.3747 435.513 37.8733 436.089 37.532C436.665 37.18 437.321 37.004 438.057 37.004Z" fill="white"/>
<path d="M497.283 34.124L501.171 44.156C501.331 44.54 501.501 44.8067 501.683 44.956C501.875 45.0947 502.051 45.1693 502.211 45.18V45.5C501.933 45.4787 501.597 45.468 501.203 45.468C500.819 45.4573 500.424 45.452 500.019 45.452C499.549 45.452 499.112 45.4573 498.707 45.468C498.301 45.468 497.971 45.4787 497.715 45.5V45.18C498.259 45.1587 498.605 45.068 498.755 44.908C498.904 44.7373 498.872 44.38 498.659 43.836L495.843 36.236L496.131 35.884L493.571 42.524C493.368 43.0573 493.245 43.4947 493.203 43.836C493.16 44.1773 493.187 44.444 493.283 44.636C493.379 44.828 493.539 44.9667 493.763 45.052C493.987 45.1267 494.264 45.1693 494.595 45.18V45.5C494.253 45.4787 493.923 45.468 493.603 45.468C493.283 45.4573 492.963 45.452 492.643 45.452C492.408 45.452 492.184 45.4573 491.971 45.468C491.768 45.468 491.587 45.4787 491.427 45.5V45.18C491.661 45.1267 491.891 44.988 492.115 44.764C492.349 44.54 492.573 44.1507 492.787 43.596L496.451 34.124C496.579 34.1347 496.717 34.14 496.867 34.14C497.016 34.14 497.155 34.1347 497.283 34.124ZM498.675 40.892V41.212H493.907L494.067 40.892H498.675ZM507.783 37.004C508.615 37.004 509.308 37.356 509.863 38.06C510.428 38.7533 510.711 39.8093 510.711 41.228C510.711 42.284 510.546 43.148 510.215 43.82C509.884 44.4813 509.442 44.9667 508.887 45.276C508.332 45.5747 507.73 45.724 507.079 45.724C506.62 45.724 506.178 45.628 505.751 45.436C505.335 45.2333 504.999 44.9187 504.743 44.492H505.015C505.228 44.7907 505.484 45.0147 505.783 45.164C506.092 45.3027 506.402 45.372 506.711 45.372C507.34 45.372 507.81 45.0467 508.119 44.396C508.428 43.7347 508.583 42.7267 508.583 41.372C508.583 40.476 508.519 39.756 508.391 39.212C508.274 38.6573 508.098 38.2573 507.863 38.012C507.628 37.756 507.335 37.628 506.983 37.628C506.567 37.628 506.183 37.804 505.831 38.156C505.49 38.508 505.292 39.0093 505.239 39.66L505.127 39.212C505.298 38.508 505.618 37.964 506.087 37.58C506.567 37.196 507.132 37.004 507.783 37.004ZM505.303 32.972V45.02C505.079 45.0307 504.85 45.0733 504.615 45.148C504.38 45.212 504.162 45.2973 503.959 45.404C503.756 45.5 503.58 45.6173 503.431 45.756L503.175 45.628C503.228 45.4787 503.26 45.3293 503.271 45.18C503.282 45.0307 503.287 44.876 503.287 44.716V34.892C503.287 34.412 503.207 34.06 503.047 33.836C502.898 33.6013 502.615 33.484 502.199 33.484V33.148C502.54 33.18 502.871 33.196 503.191 33.196C503.596 33.196 503.975 33.18 504.327 33.148C504.679 33.1053 505.004 33.0467 505.303 32.972ZM515.849 37.004C516.585 37.004 517.236 37.1533 517.801 37.452C518.377 37.74 518.83 38.204 519.161 38.844C519.502 39.484 519.673 40.3267 519.673 41.372C519.673 42.4173 519.502 43.26 519.161 43.9C518.83 44.54 518.377 45.004 517.801 45.292C517.236 45.58 516.585 45.724 515.849 45.724C515.113 45.724 514.457 45.58 513.881 45.292C513.305 45.004 512.852 44.54 512.521 43.9C512.19 43.26 512.025 42.4173 512.025 41.372C512.025 40.3267 512.19 39.484 512.521 38.844C512.852 38.204 513.305 37.74 513.881 37.452C514.457 37.1533 515.113 37.004 515.849 37.004ZM515.849 37.324C515.348 37.324 514.937 37.644 514.617 38.284C514.308 38.9133 514.153 39.9427 514.153 41.372C514.153 42.8013 514.308 43.8307 514.617 44.46C514.937 45.0893 515.348 45.404 515.849 45.404C516.34 45.404 516.745 45.0893 517.065 44.46C517.385 43.8307 517.545 42.8013 517.545 41.372C517.545 39.9427 517.385 38.9133 517.065 38.284C516.745 37.644 516.34 37.324 515.849 37.324ZM528.451 37.052V43.772C528.451 44.252 528.531 44.6093 528.691 44.844C528.851 45.068 529.133 45.18 529.539 45.18V45.516C529.208 45.484 528.877 45.468 528.547 45.468C528.152 45.468 527.773 45.484 527.411 45.516C527.059 45.548 526.733 45.6067 526.435 45.692V44.092C526.168 44.6787 525.8 45.1 525.331 45.356C524.872 45.6013 524.376 45.724 523.843 45.724C523.427 45.724 523.075 45.6653 522.787 45.548C522.509 45.4413 522.285 45.292 522.115 45.1C521.933 44.8973 521.805 44.6307 521.731 44.3C521.656 43.9693 521.619 43.5427 521.619 43.02V38.972C521.619 38.492 521.539 38.14 521.379 37.916C521.229 37.6813 520.947 37.564 520.531 37.564V37.228C520.872 37.26 521.203 37.276 521.523 37.276C521.917 37.276 522.291 37.26 522.643 37.228C523.005 37.1853 523.336 37.1267 523.635 37.052V43.58C523.635 43.868 523.656 44.124 523.699 44.348C523.752 44.572 523.853 44.7533 524.003 44.892C524.152 45.02 524.376 45.084 524.675 45.084C525.005 45.084 525.304 44.988 525.571 44.796C525.837 44.604 526.045 44.3427 526.195 44.012C526.355 43.6813 526.435 43.308 526.435 42.892V38.972C526.435 38.492 526.355 38.14 526.195 37.916C526.045 37.6813 525.763 37.564 525.347 37.564V37.228C525.688 37.26 526.019 37.276 526.339 37.276C526.733 37.276 527.107 37.26 527.459 37.228C527.821 37.1853 528.152 37.1267 528.451 37.052ZM533.294 34.604V37.244H535.342V37.564H533.294V43.932C533.294 44.316 533.363 44.588 533.502 44.748C533.64 44.908 533.838 44.988 534.094 44.988C534.339 44.988 534.563 44.8973 534.766 44.716C534.968 44.524 535.15 44.2093 535.31 43.772L535.598 43.9C535.438 44.4227 535.187 44.86 534.846 45.212C534.515 45.5533 534.046 45.724 533.438 45.724C533.075 45.724 532.766 45.676 532.51 45.58C532.264 45.4947 532.051 45.3667 531.87 45.196C531.635 44.9507 531.475 44.6573 531.39 44.316C531.315 43.9747 531.278 43.5213 531.278 42.956V37.564H529.87V37.244H531.278V35.02C531.662 35.0093 532.019 34.972 532.35 34.908C532.68 34.844 532.995 34.7427 533.294 34.604ZM547.294 37.052V43.772C547.294 44.252 547.374 44.6093 547.534 44.844C547.694 45.068 547.977 45.18 548.382 45.18V45.516C548.052 45.484 547.721 45.468 547.39 45.468C546.996 45.468 546.617 45.484 546.254 45.516C545.902 45.548 545.577 45.6067 545.278 45.692V44.092C545.012 44.6787 544.644 45.1 544.174 45.356C543.716 45.6013 543.22 45.724 542.686 45.724C542.27 45.724 541.918 45.6653 541.63 45.548C541.353 45.4413 541.129 45.292 540.958 45.1C540.777 44.8973 540.649 44.6307 540.574 44.3C540.5 43.9693 540.462 43.5427 540.462 43.02V38.972C540.462 38.492 540.382 38.14 540.222 37.916C540.073 37.6813 539.79 37.564 539.374 37.564V37.228C539.716 37.26 540.046 37.276 540.366 37.276C540.761 37.276 541.134 37.26 541.486 37.228C541.849 37.1853 542.18 37.1267 542.478 37.052V43.58C542.478 43.868 542.5 44.124 542.542 44.348C542.596 44.572 542.697 44.7533 542.846 44.892C542.996 45.02 543.22 45.084 543.518 45.084C543.849 45.084 544.148 44.988 544.414 44.796C544.681 44.604 544.889 44.3427 545.038 44.012C545.198 43.6813 545.278 43.308 545.278 42.892V38.972C545.278 38.492 545.198 38.14 545.038 37.916C544.889 37.6813 544.606 37.564 544.19 37.564V37.228C544.532 37.26 544.862 37.276 545.182 37.276C545.577 37.276 545.95 37.26 546.302 37.228C546.665 37.1853 546.996 37.1267 547.294 37.052ZM552.169 37.004C552.617 37.004 553.001 37.068 553.321 37.196C553.641 37.324 553.876 37.436 554.025 37.532C554.388 37.7987 554.607 37.628 554.681 37.02H555.033C555.012 37.3293 554.996 37.6973 554.985 38.124C554.975 38.54 554.969 39.1 554.969 39.804H554.617C554.564 39.4093 554.463 39.0253 554.313 38.652C554.164 38.2787 553.945 37.9693 553.657 37.724C553.369 37.468 552.991 37.34 552.521 37.34C552.191 37.34 551.913 37.436 551.689 37.628C551.476 37.82 551.369 38.092 551.369 38.444C551.369 38.764 551.465 39.0467 551.657 39.292C551.849 39.5267 552.095 39.7507 552.393 39.964C552.703 40.1667 553.023 40.3907 553.353 40.636C553.737 40.892 554.079 41.1533 554.377 41.42C554.676 41.676 554.916 41.964 555.097 42.284C555.279 42.5933 555.369 42.9613 555.369 43.388C555.369 43.8787 555.231 44.3 554.953 44.652C554.687 44.9933 554.329 45.26 553.881 45.452C553.444 45.6333 552.959 45.724 552.425 45.724C552.137 45.724 551.876 45.6973 551.641 45.644C551.407 45.5907 551.199 45.5213 551.017 45.436C550.879 45.3613 550.751 45.292 550.633 45.228C550.527 45.164 550.415 45.1107 550.297 45.068C550.191 45.0147 550.095 45.036 550.009 45.132C549.935 45.228 549.876 45.388 549.833 45.612H549.481C549.503 45.2707 549.519 44.8547 549.529 44.364C549.54 43.8733 549.545 43.2227 549.545 42.412H549.897C549.972 42.9987 550.084 43.516 550.233 43.964C550.393 44.4013 550.623 44.748 550.921 45.004C551.22 45.2493 551.604 45.372 552.073 45.372C552.276 45.372 552.468 45.3293 552.649 45.244C552.841 45.1587 552.996 45.0253 553.113 44.844C553.241 44.6627 553.305 44.4173 553.305 44.108C553.305 43.6387 553.145 43.2493 552.825 42.94C552.505 42.6307 552.105 42.3 551.625 41.948C551.263 41.6813 550.921 41.42 550.601 41.164C550.292 40.908 550.036 40.62 549.833 40.3C549.641 39.98 549.545 39.6013 549.545 39.164C549.545 38.684 549.668 38.2893 549.913 37.98C550.159 37.66 550.479 37.42 550.873 37.26C551.279 37.0893 551.711 37.004 552.169 37.004Z" fill="white"/>
<path d="M610.019 33.98C610.616 33.98 611.075 34.044 611.395 34.172C611.715 34.3 611.992 34.4387 612.227 34.588C612.355 34.6627 612.456 34.7213 612.531 34.764C612.616 34.796 612.696 34.812 612.771 34.812C612.877 34.812 612.952 34.7533 612.995 34.636C613.048 34.5187 613.091 34.3427 613.123 34.108H613.491C613.48 34.3107 613.464 34.5453 613.443 34.812C613.432 35.0787 613.421 35.436 613.411 35.884C613.411 36.3213 613.411 36.9027 613.411 37.628H613.043C613.011 37.084 612.888 36.5613 612.675 36.06C612.472 35.5587 612.179 35.148 611.795 34.828C611.421 34.4973 610.941 34.332 610.355 34.332C609.832 34.332 609.395 34.4867 609.043 34.796C608.701 35.1053 608.531 35.5213 608.531 36.044C608.531 36.492 608.643 36.8707 608.867 37.18C609.091 37.4787 609.405 37.772 609.811 38.06C610.227 38.3373 610.717 38.6573 611.283 39.02C611.805 39.3613 612.275 39.7027 612.691 40.044C613.107 40.3747 613.432 40.7427 613.667 41.148C613.912 41.5533 614.035 42.0493 614.035 42.636C614.035 43.3293 613.864 43.9053 613.523 44.364C613.181 44.8227 612.723 45.164 612.147 45.388C611.571 45.612 610.941 45.724 610.259 45.724C609.629 45.724 609.128 45.66 608.755 45.532C608.392 45.404 608.077 45.2707 607.811 45.132C607.576 44.9827 607.395 44.908 607.267 44.908C607.16 44.908 607.08 44.9667 607.027 45.084C606.984 45.2013 606.947 45.3773 606.915 45.612H606.547C606.568 45.3667 606.579 45.0787 606.579 44.748C606.589 44.4173 606.595 43.9907 606.595 43.468C606.605 42.9347 606.611 42.2627 606.611 41.452H606.979C607.021 42.1347 607.139 42.7747 607.331 43.372C607.533 43.9587 607.837 44.4333 608.243 44.796C608.659 45.1587 609.208 45.34 609.891 45.34C610.264 45.34 610.6 45.276 610.899 45.148C611.208 45.0093 611.453 44.8013 611.635 44.524C611.816 44.236 611.907 43.8733 611.907 43.436C611.907 42.9987 611.805 42.6147 611.603 42.284C611.4 41.9533 611.117 41.644 610.755 41.356C610.392 41.068 609.965 40.7747 609.475 40.476C608.973 40.156 608.504 39.8307 608.067 39.5C607.629 39.1693 607.277 38.796 607.011 38.38C606.755 37.9533 606.627 37.4413 606.627 36.844C606.627 36.1827 606.787 35.644 607.107 35.228C607.427 34.8013 607.843 34.4867 608.355 34.284C608.877 34.0813 609.432 33.98 610.019 33.98ZM619.192 37.004C620.131 37.004 620.867 37.2867 621.4 37.852C621.933 38.4173 622.2 39.3187 622.2 40.556H616.808L616.792 40.252H620.344C620.365 39.7293 620.333 39.2493 620.248 38.812C620.163 38.364 620.024 38.0067 619.832 37.74C619.651 37.4733 619.411 37.34 619.112 37.34C618.707 37.34 618.355 37.58 618.056 38.06C617.757 38.5293 617.571 39.3027 617.496 40.38L617.56 40.476C617.539 40.6147 617.523 40.764 617.512 40.924C617.512 41.084 617.512 41.244 617.512 41.404C617.512 42.14 617.619 42.748 617.832 43.228C618.045 43.708 618.323 44.06 618.664 44.284C619.005 44.508 619.357 44.62 619.72 44.62C619.965 44.62 620.216 44.5827 620.472 44.508C620.728 44.4333 620.979 44.2947 621.224 44.092C621.469 43.8893 621.693 43.6013 621.896 43.228L622.2 43.356C622.083 43.7293 621.885 44.1027 621.608 44.476C621.341 44.8387 620.995 45.1373 620.568 45.372C620.141 45.6067 619.64 45.724 619.064 45.724C618.339 45.724 617.699 45.564 617.144 45.244C616.589 44.924 616.157 44.4493 615.848 43.82C615.539 43.18 615.384 42.4013 615.384 41.484C615.384 40.5133 615.544 39.6973 615.864 39.036C616.195 38.3747 616.648 37.8733 617.224 37.532C617.8 37.18 618.456 37.004 619.192 37.004ZM630.697 37.228V37.564C630.495 37.6067 630.303 37.7187 630.121 37.9C629.951 38.0813 629.785 38.4013 629.625 38.86L627.177 45.548C627.049 45.5373 626.921 45.532 626.793 45.532C626.665 45.532 626.532 45.5373 626.393 45.548L623.513 38.46C623.353 38.0547 623.188 37.804 623.017 37.708C622.847 37.612 622.703 37.564 622.585 37.564V37.228C622.884 37.2493 623.193 37.2707 623.513 37.292C623.833 37.3027 624.185 37.308 624.569 37.308C624.9 37.308 625.247 37.3027 625.609 37.292C625.983 37.2707 626.329 37.2493 626.649 37.228V37.564C626.415 37.564 626.201 37.58 626.009 37.612C625.828 37.644 625.705 37.7293 625.641 37.868C625.577 37.996 625.604 38.2253 625.721 38.556L627.641 43.532L627.497 43.708L628.953 39.756C629.135 39.2547 629.209 38.8493 629.177 38.54C629.145 38.2307 629.028 37.996 628.825 37.836C628.633 37.676 628.356 37.5853 627.993 37.564V37.228C628.175 37.2387 628.345 37.2493 628.505 37.26C628.676 37.2707 628.841 37.2813 629.001 37.292C629.172 37.292 629.332 37.292 629.481 37.292C629.705 37.292 629.924 37.2867 630.137 37.276C630.361 37.2653 630.548 37.2493 630.697 37.228ZM633.197 45.612C632.738 45.612 632.349 45.5267 632.029 45.356C631.709 45.1747 631.469 44.9347 631.309 44.636C631.149 44.3267 631.069 43.9853 631.069 43.612C631.069 43.1533 631.175 42.78 631.389 42.492C631.602 42.1933 631.874 41.9587 632.205 41.788C632.546 41.6067 632.903 41.4573 633.277 41.34C633.65 41.212 634.002 41.0947 634.333 40.988C634.663 40.8707 634.935 40.7373 635.149 40.588C635.362 40.4387 635.469 40.2413 635.469 39.996V38.828C635.469 38.4867 635.415 38.2093 635.309 37.996C635.213 37.772 635.063 37.6067 634.861 37.5C634.669 37.3827 634.423 37.324 634.125 37.324C633.901 37.324 633.666 37.356 633.421 37.42C633.175 37.484 632.973 37.6067 632.813 37.788C633.09 37.8627 633.303 38.0013 633.453 38.204C633.613 38.4067 633.693 38.652 633.693 38.94C633.693 39.2707 633.581 39.532 633.357 39.724C633.143 39.9053 632.871 39.996 632.541 39.996C632.189 39.996 631.922 39.884 631.741 39.66C631.559 39.436 631.469 39.1747 631.469 38.876C631.469 38.5773 631.543 38.332 631.693 38.14C631.842 37.9373 632.05 37.756 632.317 37.596C632.583 37.4147 632.925 37.2707 633.341 37.164C633.757 37.0573 634.21 37.004 634.701 37.004C635.17 37.004 635.586 37.0573 635.949 37.164C636.311 37.26 636.621 37.436 636.877 37.692C637.133 37.9373 637.298 38.2413 637.373 38.604C637.447 38.9667 637.485 39.4093 637.485 39.932V44.316C637.485 44.5827 637.517 44.7747 637.581 44.892C637.645 44.9987 637.746 45.052 637.885 45.052C637.991 45.052 638.093 45.0253 638.189 44.972C638.285 44.9187 638.391 44.844 638.509 44.748L638.685 45.02C638.45 45.2013 638.205 45.3453 637.949 45.452C637.693 45.5587 637.383 45.612 637.021 45.612C636.647 45.612 636.349 45.5587 636.125 45.452C635.911 45.3453 635.751 45.1907 635.645 44.988C635.549 44.7853 635.495 44.5453 635.485 44.268C635.229 44.6947 634.914 45.0253 634.541 45.26C634.167 45.4947 633.719 45.612 633.197 45.612ZM634.157 44.716C634.413 44.716 634.647 44.6467 634.861 44.508C635.085 44.3693 635.287 44.1613 635.469 43.884V40.652C635.362 40.812 635.207 40.956 635.005 41.084C634.813 41.212 634.605 41.34 634.381 41.468C634.157 41.596 633.943 41.7453 633.741 41.916C633.549 42.076 633.383 42.2787 633.245 42.524C633.117 42.7587 633.053 43.0627 633.053 43.436C633.053 43.852 633.154 44.172 633.357 44.396C633.559 44.6093 633.826 44.716 634.157 44.716ZM642.201 37.004C642.649 37.004 643.033 37.068 643.353 37.196C643.673 37.324 643.907 37.436 644.057 37.532C644.419 37.7987 644.638 37.628 644.713 37.02H645.065C645.043 37.3293 645.027 37.6973 645.017 38.124C645.006 38.54 645.001 39.1 645.001 39.804H644.649C644.595 39.4093 644.494 39.0253 644.345 38.652C644.195 38.2787 643.977 37.9693 643.689 37.724C643.401 37.468 643.022 37.34 642.553 37.34C642.222 37.34 641.945 37.436 641.721 37.628C641.507 37.82 641.401 38.092 641.401 38.444C641.401 38.764 641.497 39.0467 641.689 39.292C641.881 39.5267 642.126 39.7507 642.425 39.964C642.734 40.1667 643.054 40.3907 643.385 40.636C643.769 40.892 644.11 41.1533 644.409 41.42C644.707 41.676 644.947 41.964 645.129 42.284C645.31 42.5933 645.401 42.9613 645.401 43.388C645.401 43.8787 645.262 44.3 644.985 44.652C644.718 44.9933 644.361 45.26 643.913 45.452C643.475 45.6333 642.99 45.724 642.457 45.724C642.169 45.724 641.907 45.6973 641.673 45.644C641.438 45.5907 641.23 45.5213 641.049 45.436C640.91 45.3613 640.782 45.292 640.665 45.228C640.558 45.164 640.446 45.1107 640.329 45.068C640.222 45.0147 640.126 45.036 640.041 45.132C639.966 45.228 639.907 45.388 639.865 45.612H639.513C639.534 45.2707 639.55 44.8547 639.561 44.364C639.571 43.8733 639.577 43.2227 639.577 42.412H639.929C640.003 42.9987 640.115 43.516 640.265 43.964C640.425 44.4013 640.654 44.748 640.953 45.004C641.251 45.2493 641.635 45.372 642.105 45.372C642.307 45.372 642.499 45.3293 642.681 45.244C642.873 45.1587 643.027 45.0253 643.145 44.844C643.273 44.6627 643.337 44.4173 643.337 44.108C643.337 43.6387 643.177 43.2493 642.857 42.94C642.537 42.6307 642.137 42.3 641.657 41.948C641.294 41.6813 640.953 41.42 640.633 41.164C640.323 40.908 640.067 40.62 639.865 40.3C639.673 39.98 639.577 39.6013 639.577 39.164C639.577 38.684 639.699 38.2893 639.945 37.98C640.19 37.66 640.51 37.42 640.905 37.26C641.31 37.0893 641.742 37.004 642.201 37.004Z" fill="white"/>
<path d="M726.01 34.448C726.725 34.448 727.306 34.5547 727.754 34.768C728.202 34.9707 728.613 35.2107 728.986 35.488C729.114 35.5947 729.221 35.648 729.306 35.648C729.509 35.648 729.642 35.3227 729.706 34.672H730.074C730.053 35.0773 730.037 35.5733 730.026 36.16C730.015 36.7467 730.01 37.52 730.01 38.48H729.642C729.567 37.904 729.461 37.3867 729.322 36.928C729.183 36.4693 728.933 36.08 728.57 35.76C728.293 35.4613 727.941 35.232 727.514 35.072C727.098 34.9013 726.677 34.816 726.25 34.816C725.685 34.816 725.189 34.9653 724.762 35.264C724.346 35.552 723.994 35.952 723.706 36.464C723.429 36.9653 723.221 37.552 723.082 38.224C722.943 38.8853 722.874 39.5947 722.874 40.352C722.874 42.272 723.151 43.68 723.706 44.576C724.271 45.4613 725.098 45.904 726.186 45.904C726.485 45.904 726.741 45.8667 726.954 45.792C727.178 45.7067 727.359 45.6213 727.498 45.536C727.669 45.4187 727.781 45.296 727.834 45.168C727.887 45.04 727.914 44.88 727.914 44.688V43.12C727.914 42.6507 727.871 42.304 727.786 42.08C727.701 41.8453 727.541 41.6853 727.306 41.6C727.082 41.5147 726.746 41.4667 726.298 41.456V41.136C726.511 41.1467 726.762 41.1573 727.05 41.168C727.349 41.168 727.658 41.1733 727.978 41.184C728.309 41.184 728.607 41.184 728.874 41.184C729.29 41.184 729.669 41.1787 730.01 41.168C730.351 41.1573 730.634 41.1467 730.858 41.136V41.456C730.645 41.4667 730.479 41.504 730.362 41.568C730.255 41.632 730.186 41.76 730.154 41.952C730.122 42.144 730.106 42.4373 730.106 42.832V46H729.786C729.775 45.8187 729.733 45.6213 729.658 45.408C729.583 45.1947 729.471 45.088 729.322 45.088C729.247 45.088 729.162 45.1093 729.066 45.152C728.97 45.184 728.805 45.264 728.57 45.392C728.197 45.6373 727.797 45.84 727.37 46C726.954 46.1493 726.495 46.224 725.994 46.224C724.799 46.224 723.786 46 722.954 45.552C722.133 45.0933 721.509 44.4373 721.082 43.584C720.655 42.72 720.442 41.6907 720.442 40.496C720.442 39.2693 720.682 38.2027 721.162 37.296C721.642 36.3893 722.298 35.6907 723.13 35.2C723.973 34.6987 724.933 34.448 726.01 34.448ZM733.861 46.112C733.403 46.112 733.013 46.0267 732.693 45.856C732.373 45.6747 732.133 45.4347 731.973 45.136C731.813 44.8267 731.733 44.4853 731.733 44.112C731.733 43.6533 731.84 43.28 732.053 42.992C732.267 42.6933 732.539 42.4587 732.869 42.288C733.211 42.1067 733.568 41.9573 733.941 41.84C734.315 41.712 734.667 41.5947 734.997 41.488C735.328 41.3707 735.6 41.2373 735.813 41.088C736.027 40.9387 736.133 40.7413 736.133 40.496V39.328C736.133 38.9867 736.08 38.7093 735.973 38.496C735.877 38.272 735.728 38.1067 735.525 38C735.333 37.8827 735.088 37.824 734.789 37.824C734.565 37.824 734.331 37.856 734.085 37.92C733.84 37.984 733.637 38.1067 733.477 38.288C733.755 38.3627 733.968 38.5013 734.117 38.704C734.277 38.9067 734.357 39.152 734.357 39.44C734.357 39.7707 734.245 40.032 734.021 40.224C733.808 40.4053 733.536 40.496 733.205 40.496C732.853 40.496 732.587 40.384 732.405 40.16C732.224 39.936 732.133 39.6747 732.133 39.376C732.133 39.0773 732.208 38.832 732.357 38.64C732.507 38.4373 732.715 38.256 732.981 38.096C733.248 37.9147 733.589 37.7707 734.005 37.664C734.421 37.5573 734.875 37.504 735.365 37.504C735.835 37.504 736.251 37.5573 736.613 37.664C736.976 37.76 737.285 37.936 737.541 38.192C737.797 38.4373 737.963 38.7413 738.037 39.104C738.112 39.4667 738.149 39.9093 738.149 40.432V44.816C738.149 45.0827 738.181 45.2747 738.245 45.392C738.309 45.4987 738.411 45.552 738.549 45.552C738.656 45.552 738.757 45.5253 738.853 45.472C738.949 45.4187 739.056 45.344 739.173 45.248L739.349 45.52C739.115 45.7013 738.869 45.8453 738.613 45.952C738.357 46.0587 738.048 46.112 737.685 46.112C737.312 46.112 737.013 46.0587 736.789 45.952C736.576 45.8453 736.416 45.6907 736.309 45.488C736.213 45.2853 736.16 45.0453 736.149 44.768C735.893 45.1947 735.579 45.5253 735.205 45.76C734.832 45.9947 734.384 46.112 733.861 46.112ZM734.821 45.216C735.077 45.216 735.312 45.1467 735.525 45.008C735.749 44.8693 735.952 44.6613 736.133 44.384V41.152C736.027 41.312 735.872 41.456 735.669 41.584C735.477 41.712 735.269 41.84 735.045 41.968C734.821 42.096 734.608 42.2453 734.405 42.416C734.213 42.576 734.048 42.7787 733.909 43.024C733.781 43.2587 733.717 43.5627 733.717 43.936C733.717 44.352 733.819 44.672 734.021 44.896C734.224 45.1093 734.491 45.216 734.821 45.216ZM742.817 33.472V44.512C742.817 44.96 742.897 45.264 743.057 45.424C743.228 45.584 743.51 45.664 743.905 45.664V46C743.713 45.9893 743.42 45.9787 743.025 45.968C742.641 45.9467 742.246 45.936 741.841 45.936C741.446 45.936 741.041 45.9467 740.625 45.968C740.22 45.9787 739.916 45.9893 739.713 46V45.664C740.108 45.664 740.385 45.584 740.545 45.424C740.716 45.264 740.801 44.96 740.801 44.512V35.392C740.801 34.912 740.726 34.56 740.577 34.336C740.428 34.1013 740.14 33.984 739.713 33.984V33.648C740.054 33.68 740.385 33.696 740.705 33.696C741.11 33.696 741.489 33.68 741.841 33.648C742.193 33.6053 742.518 33.5467 742.817 33.472ZM747.723 33.472V44.512C747.723 44.96 747.803 45.264 747.963 45.424C748.134 45.584 748.417 45.664 748.811 45.664V46C748.619 45.9893 748.326 45.9787 747.931 45.968C747.547 45.9467 747.153 45.936 746.747 45.936C746.353 45.936 745.947 45.9467 745.531 45.968C745.126 45.9787 744.822 45.9893 744.619 46V45.664C745.014 45.664 745.291 45.584 745.451 45.424C745.622 45.264 745.707 44.96 745.707 44.512V35.392C745.707 34.912 745.633 34.56 745.483 34.336C745.334 34.1013 745.046 33.984 744.619 33.984V33.648C744.961 33.68 745.291 33.696 745.611 33.696C746.017 33.696 746.395 33.68 746.747 33.648C747.099 33.6053 747.425 33.5467 747.723 33.472ZM753.435 37.504C754.373 37.504 755.109 37.7867 755.643 38.352C756.176 38.9173 756.443 39.8187 756.443 41.056H751.051L751.035 40.752H754.587C754.608 40.2293 754.576 39.7493 754.491 39.312C754.405 38.864 754.267 38.5067 754.075 38.24C753.893 37.9733 753.653 37.84 753.355 37.84C752.949 37.84 752.597 38.08 752.299 38.56C752 39.0293 751.813 39.8027 751.739 40.88L751.803 40.976C751.781 41.1147 751.765 41.264 751.755 41.424C751.755 41.584 751.755 41.744 751.755 41.904C751.755 42.64 751.861 43.248 752.075 43.728C752.288 44.208 752.565 44.56 752.907 44.784C753.248 45.008 753.6 45.12 753.963 45.12C754.208 45.12 754.459 45.0827 754.715 45.008C754.971 44.9333 755.221 44.7947 755.467 44.592C755.712 44.3893 755.936 44.1013 756.139 43.728L756.443 43.856C756.325 44.2293 756.128 44.6027 755.851 44.976C755.584 45.3387 755.237 45.6373 754.811 45.872C754.384 46.1067 753.883 46.224 753.307 46.224C752.581 46.224 751.941 46.064 751.387 45.744C750.832 45.424 750.4 44.9493 750.091 44.32C749.781 43.68 749.627 42.9013 749.627 41.984C749.627 41.0133 749.787 40.1973 750.107 39.536C750.437 38.8747 750.891 38.3733 751.467 38.032C752.043 37.68 752.699 37.504 753.435 37.504ZM762.73 37.504C763.061 37.504 763.333 37.5733 763.546 37.712C763.77 37.8507 763.936 38.0267 764.042 38.24C764.149 38.4533 764.202 38.6773 764.202 38.912C764.202 39.264 764.096 39.5573 763.882 39.792C763.68 40.0267 763.408 40.144 763.066 40.144C762.746 40.144 762.485 40.0587 762.282 39.888C762.08 39.7173 761.978 39.4827 761.978 39.184C761.978 38.9173 762.042 38.6933 762.17 38.512C762.309 38.3307 762.464 38.1867 762.634 38.08C762.517 38.016 762.384 37.9947 762.234 38.016C761.978 38.0373 761.744 38.128 761.53 38.288C761.317 38.448 761.136 38.6453 760.986 38.88C760.837 39.1147 760.72 39.3653 760.634 39.632C760.56 39.8987 760.522 40.1547 760.522 40.4V44.352C760.522 44.8747 760.656 45.2267 760.922 45.408C761.189 45.5787 761.578 45.664 762.09 45.664V46C761.845 45.9893 761.488 45.9787 761.018 45.968C760.56 45.9467 760.08 45.936 759.578 45.936C759.162 45.936 758.746 45.9467 758.33 45.968C757.925 45.9787 757.621 45.9893 757.418 46V45.664C757.813 45.664 758.09 45.584 758.25 45.424C758.421 45.264 758.506 44.96 758.506 44.512V39.472C758.506 38.992 758.426 38.64 758.266 38.416C758.117 38.1813 757.834 38.064 757.418 38.064V37.728C757.76 37.76 758.09 37.776 758.41 37.776C758.805 37.776 759.178 37.76 759.53 37.728C759.893 37.6853 760.224 37.6267 760.522 37.552V39.216C760.65 38.9173 760.816 38.64 761.018 38.384C761.232 38.128 761.482 37.92 761.77 37.76C762.069 37.5893 762.389 37.504 762.73 37.504ZM772.442 37.728V38.064C772.24 38.1067 772.048 38.2187 771.866 38.4C771.696 38.5813 771.53 38.9013 771.37 39.36L769.002 45.856L768.506 46.608L765.21 38.96C765.008 38.5547 764.816 38.304 764.634 38.208C764.453 38.112 764.304 38.064 764.186 38.064V37.728C764.496 37.76 764.816 37.7867 765.146 37.808C765.488 37.8187 765.829 37.824 766.17 37.824C766.565 37.824 766.944 37.8133 767.306 37.792C767.68 37.7707 768.026 37.7493 768.346 37.728V38.064C768.101 38.064 767.882 38.08 767.69 38.112C767.498 38.144 767.37 38.2347 767.306 38.384C767.253 38.5227 767.296 38.768 767.434 39.12L769.434 44L769.306 44.064L770.714 40.256C770.896 39.7547 770.97 39.3493 770.938 39.04C770.906 38.7307 770.789 38.496 770.586 38.336C770.384 38.176 770.106 38.0853 769.754 38.064V37.728C769.925 37.7387 770.096 37.7493 770.266 37.76C770.437 37.7707 770.602 37.7813 770.762 37.792C770.922 37.792 771.077 37.792 771.226 37.792C771.45 37.792 771.669 37.7867 771.882 37.776C772.106 37.7653 772.293 37.7493 772.442 37.728ZM769.002 45.856L768.394 47.472C768.298 47.7387 768.192 47.9627 768.074 48.144C767.968 48.336 767.845 48.4907 767.706 48.608C767.546 48.7467 767.349 48.848 767.114 48.912C766.89 48.976 766.64 49.008 766.362 49.008C766.117 49.008 765.877 48.9653 765.642 48.88C765.418 48.7947 765.226 48.6667 765.066 48.496C764.917 48.3253 764.842 48.1013 764.842 47.824C764.842 47.5253 764.944 47.2853 765.146 47.104C765.349 46.9227 765.626 46.832 765.978 46.832C766.288 46.832 766.538 46.9067 766.73 47.056C766.933 47.216 767.034 47.4507 767.034 47.76C767.034 47.9627 766.976 48.144 766.858 48.304C766.741 48.464 766.576 48.5867 766.362 48.672C766.416 48.6827 766.464 48.688 766.506 48.688C766.56 48.6987 766.602 48.704 766.634 48.704C766.944 48.704 767.221 48.6027 767.466 48.4C767.712 48.1973 767.909 47.8773 768.058 47.44L768.634 45.856H769.002Z" fill="white"/>
<path d="M847.651 34.172C847.608 34.6627 847.576 35.1427 847.555 35.612C847.544 36.0707 847.539 36.4227 847.539 36.668C847.539 36.9133 847.544 37.1427 847.555 37.356C847.565 37.5693 847.576 37.756 847.587 37.916H847.219C847.069 37.0627 846.888 36.396 846.675 35.916C846.461 35.4253 846.179 35.0733 845.827 34.86C845.485 34.6467 845.032 34.54 844.467 34.54H843.955V43.66C843.955 44.0973 843.992 44.4227 844.067 44.636C844.152 44.8493 844.317 44.9933 844.563 45.068C844.808 45.132 845.165 45.1693 845.635 45.18V45.5C845.315 45.4787 844.899 45.468 844.387 45.468C843.875 45.4573 843.352 45.452 842.819 45.452C842.264 45.452 841.741 45.4573 841.251 45.468C840.771 45.468 840.381 45.4787 840.083 45.5V45.18C840.541 45.1693 840.893 45.132 841.139 45.068C841.384 44.9933 841.549 44.8493 841.635 44.636C841.72 44.4227 841.763 44.0973 841.763 43.66V34.54H841.235C840.68 34.54 840.227 34.6467 839.875 34.86C839.523 35.0733 839.24 35.4253 839.027 35.916C838.813 36.396 838.637 37.0627 838.499 37.916H838.131C838.152 37.756 838.163 37.5693 838.163 37.356C838.173 37.1427 838.179 36.9133 838.179 36.668C838.179 36.4227 838.168 36.0707 838.147 35.612C838.136 35.1427 838.109 34.6627 838.067 34.172C838.536 34.1827 839.053 34.1933 839.619 34.204C840.184 34.2147 840.749 34.22 841.315 34.22C841.88 34.22 842.397 34.22 842.867 34.22C843.325 34.22 843.837 34.22 844.403 34.22C844.968 34.22 845.533 34.2147 846.099 34.204C846.664 34.1933 847.181 34.1827 847.651 34.172ZM853.8 37.004C854.131 37.004 854.403 37.0733 854.616 37.212C854.84 37.3507 855.006 37.5267 855.112 37.74C855.219 37.9533 855.272 38.1773 855.272 38.412C855.272 38.764 855.166 39.0573 854.952 39.292C854.75 39.5267 854.478 39.644 854.136 39.644C853.816 39.644 853.555 39.5587 853.352 39.388C853.15 39.2173 853.048 38.9827 853.048 38.684C853.048 38.4173 853.112 38.1933 853.24 38.012C853.379 37.8307 853.534 37.6867 853.704 37.58C853.587 37.516 853.454 37.4947 853.304 37.516C853.048 37.5373 852.814 37.628 852.6 37.788C852.387 37.948 852.206 38.1453 852.056 38.38C851.907 38.6147 851.79 38.8653 851.704 39.132C851.63 39.3987 851.592 39.6547 851.592 39.9V43.852C851.592 44.3747 851.726 44.7267 851.992 44.908C852.259 45.0787 852.648 45.164 853.16 45.164V45.5C852.915 45.4893 852.558 45.4787 852.088 45.468C851.63 45.4467 851.15 45.436 850.648 45.436C850.232 45.436 849.816 45.4467 849.4 45.468C848.995 45.4787 848.691 45.4893 848.488 45.5V45.164C848.883 45.164 849.16 45.084 849.32 44.924C849.491 44.764 849.576 44.46 849.576 44.012V38.972C849.576 38.492 849.496 38.14 849.336 37.916C849.187 37.6813 848.904 37.564 848.488 37.564V37.228C848.83 37.26 849.16 37.276 849.48 37.276C849.875 37.276 850.248 37.26 850.6 37.228C850.963 37.1853 851.294 37.1267 851.592 37.052V38.716C851.72 38.4173 851.886 38.14 852.088 37.884C852.302 37.628 852.552 37.42 852.84 37.26C853.139 37.0893 853.459 37.004 853.8 37.004ZM863.56 37.052V43.772C863.56 44.252 863.64 44.6093 863.8 44.844C863.96 45.068 864.243 45.18 864.648 45.18V45.516C864.317 45.484 863.987 45.468 863.656 45.468C863.261 45.468 862.883 45.484 862.52 45.516C862.168 45.548 861.843 45.6067 861.544 45.692V44.092C861.277 44.6787 860.909 45.1 860.44 45.356C859.981 45.6013 859.485 45.724 858.952 45.724C858.536 45.724 858.184 45.6653 857.896 45.548C857.619 45.4413 857.395 45.292 857.224 45.1C857.043 44.8973 856.915 44.6307 856.84 44.3C856.765 43.9693 856.728 43.5427 856.728 43.02V38.972C856.728 38.492 856.648 38.14 856.488 37.916C856.339 37.6813 856.056 37.564 855.64 37.564V37.228C855.981 37.26 856.312 37.276 856.632 37.276C857.027 37.276 857.4 37.26 857.752 37.228C858.115 37.1853 858.445 37.1267 858.744 37.052V43.58C858.744 43.868 858.765 44.124 858.808 44.348C858.861 44.572 858.963 44.7533 859.112 44.892C859.261 45.02 859.485 45.084 859.784 45.084C860.115 45.084 860.413 44.988 860.68 44.796C860.947 44.604 861.155 44.3427 861.304 44.012C861.464 43.6813 861.544 43.308 861.544 42.892V38.972C861.544 38.492 861.464 38.14 861.304 37.916C861.155 37.6813 860.872 37.564 860.456 37.564V37.228C860.797 37.26 861.128 37.276 861.448 37.276C861.843 37.276 862.216 37.26 862.568 37.228C862.931 37.1853 863.261 37.1267 863.56 37.052ZM868.435 37.004C868.883 37.004 869.267 37.068 869.587 37.196C869.907 37.324 870.142 37.436 870.291 37.532C870.654 37.7987 870.872 37.628 870.947 37.02H871.299C871.278 37.3293 871.262 37.6973 871.251 38.124C871.24 38.54 871.235 39.1 871.235 39.804H870.883C870.83 39.4093 870.728 39.0253 870.579 38.652C870.43 38.2787 870.211 37.9693 869.923 37.724C869.635 37.468 869.256 37.34 868.787 37.34C868.456 37.34 868.179 37.436 867.955 37.628C867.742 37.82 867.635 38.092 867.635 38.444C867.635 38.764 867.731 39.0467 867.923 39.292C868.115 39.5267 868.36 39.7507 868.659 39.964C868.968 40.1667 869.288 40.3907 869.619 40.636C870.003 40.892 870.344 41.1533 870.643 41.42C870.942 41.676 871.182 41.964 871.363 42.284C871.544 42.5933 871.635 42.9613 871.635 43.388C871.635 43.8787 871.496 44.3 871.219 44.652C870.952 44.9933 870.595 45.26 870.147 45.452C869.71 45.6333 869.224 45.724 868.691 45.724C868.403 45.724 868.142 45.6973 867.907 45.644C867.672 45.5907 867.464 45.5213 867.283 45.436C867.144 45.3613 867.016 45.292 866.899 45.228C866.792 45.164 866.68 45.1107 866.563 45.068C866.456 45.0147 866.36 45.036 866.275 45.132C866.2 45.228 866.142 45.388 866.099 45.612H865.747C865.768 45.2707 865.784 44.8547 865.795 44.364C865.806 43.8733 865.811 43.2227 865.811 42.412H866.163C866.238 42.9987 866.35 43.516 866.499 43.964C866.659 44.4013 866.888 44.748 867.187 45.004C867.486 45.2493 867.87 45.372 868.339 45.372C868.542 45.372 868.734 45.3293 868.915 45.244C869.107 45.1587 869.262 45.0253 869.379 44.844C869.507 44.6627 869.571 44.4173 869.571 44.108C869.571 43.6387 869.411 43.2493 869.091 42.94C868.771 42.6307 868.371 42.3 867.891 41.948C867.528 41.6813 867.187 41.42 866.867 41.164C866.558 40.908 866.302 40.62 866.099 40.3C865.907 39.98 865.811 39.6013 865.811 39.164C865.811 38.684 865.934 38.2893 866.179 37.98C866.424 37.66 866.744 37.42 867.139 37.26C867.544 37.0893 867.976 37.004 868.435 37.004ZM875.715 34.604V37.244H877.763V37.564H875.715V43.932C875.715 44.316 875.785 44.588 875.923 44.748C876.062 44.908 876.259 44.988 876.515 44.988C876.761 44.988 876.985 44.8973 877.187 44.716C877.39 44.524 877.571 44.2093 877.731 43.772L878.019 43.9C877.859 44.4227 877.609 44.86 877.267 45.212C876.937 45.5533 876.467 45.724 875.859 45.724C875.497 45.724 875.187 45.676 874.931 45.58C874.686 45.4947 874.473 45.3667 874.291 45.196C874.057 44.9507 873.897 44.6573 873.811 44.316C873.737 43.9747 873.699 43.5213 873.699 42.956V37.564H872.291V37.244H873.699V35.02C874.083 35.0093 874.441 34.972 874.771 34.908C875.102 34.844 875.417 34.7427 875.715 34.604Z" fill="white"/>
<path d="M973.843 33.948C974.547 33.948 975.123 34.0547 975.571 34.268C976.029 34.4707 976.435 34.7107 976.787 34.988C977 35.148 977.16 35.1693 977.267 35.052C977.384 34.924 977.464 34.6307 977.507 34.172H977.875C977.853 34.5773 977.837 35.0733 977.827 35.66C977.816 36.2467 977.811 37.02 977.811 37.98H977.443C977.379 37.5 977.309 37.1 977.235 36.78C977.16 36.4493 977.053 36.1667 976.915 35.932C976.787 35.6973 976.605 35.4733 976.371 35.26C976.083 34.94 975.736 34.7053 975.331 34.556C974.936 34.396 974.52 34.316 974.083 34.316C973.528 34.316 973.043 34.4653 972.627 34.764C972.221 35.052 971.88 35.452 971.603 35.964C971.336 36.4653 971.133 37.052 970.995 37.724C970.867 38.396 970.803 39.1107 970.803 39.868C970.803 40.6467 970.872 41.372 971.011 42.044C971.16 42.7053 971.373 43.2867 971.651 43.788C971.939 44.2787 972.291 44.6627 972.707 44.94C973.133 45.2173 973.624 45.356 974.179 45.356C974.573 45.356 974.979 45.2813 975.395 45.132C975.811 44.9827 976.152 44.7533 976.419 44.444C976.771 44.124 977.011 43.7453 977.139 43.308C977.267 42.86 977.368 42.268 977.443 41.532H977.811C977.811 42.5347 977.816 43.3453 977.827 43.964C977.837 44.572 977.853 45.084 977.875 45.5H977.507C977.464 45.0413 977.389 44.7533 977.283 44.636C977.187 44.5187 977.021 44.5347 976.787 44.684C976.392 44.9613 975.971 45.2067 975.523 45.42C975.085 45.6227 974.52 45.724 973.827 45.724C972.739 45.724 971.784 45.4947 970.963 45.036C970.141 44.5773 969.501 43.916 969.043 43.052C968.595 42.188 968.371 41.148 968.371 39.932C968.371 38.7373 968.605 37.692 969.075 36.796C969.544 35.9 970.189 35.2013 971.011 34.7C971.832 34.1987 972.776 33.948 973.843 33.948ZM983.318 37.004C984.054 37.004 984.705 37.1533 985.27 37.452C985.846 37.74 986.299 38.204 986.63 38.844C986.971 39.484 987.142 40.3267 987.142 41.372C987.142 42.4173 986.971 43.26 986.63 43.9C986.299 44.54 985.846 45.004 985.27 45.292C984.705 45.58 984.054 45.724 983.318 45.724C982.582 45.724 981.926 45.58 981.35 45.292C980.774 45.004 980.321 44.54 979.99 43.9C979.659 43.26 979.494 42.4173 979.494 41.372C979.494 40.3267 979.659 39.484 979.99 38.844C980.321 38.204 980.774 37.74 981.35 37.452C981.926 37.1533 982.582 37.004 983.318 37.004ZM983.318 37.324C982.817 37.324 982.406 37.644 982.086 38.284C981.777 38.9133 981.622 39.9427 981.622 41.372C981.622 42.8013 981.777 43.8307 982.086 44.46C982.406 45.0893 982.817 45.404 983.318 45.404C983.809 45.404 984.214 45.0893 984.534 44.46C984.854 43.8307 985.014 42.8013 985.014 41.372C985.014 39.9427 984.854 38.9133 984.534 38.284C984.214 37.644 983.809 37.324 983.318 37.324ZM993.935 37.004C994.383 37.004 994.741 37.0627 995.007 37.18C995.285 37.2973 995.509 37.4467 995.679 37.628C995.871 37.8307 996.005 38.092 996.079 38.412C996.165 38.732 996.207 39.164 996.207 39.708V44.012C996.207 44.46 996.287 44.764 996.447 44.924C996.618 45.084 996.901 45.164 997.295 45.164V45.5C997.103 45.4893 996.805 45.4787 996.399 45.468C996.005 45.4467 995.621 45.436 995.247 45.436C994.853 45.436 994.469 45.4467 994.095 45.468C993.722 45.4787 993.445 45.4893 993.263 45.5V45.164C993.605 45.164 993.845 45.084 993.983 44.924C994.122 44.764 994.191 44.46 994.191 44.012V39.164C994.191 38.876 994.165 38.62 994.111 38.396C994.058 38.1613 993.951 37.98 993.791 37.852C993.631 37.7133 993.402 37.644 993.103 37.644C992.751 37.644 992.437 37.74 992.159 37.932C991.893 38.124 991.679 38.3907 991.519 38.732C991.37 39.0627 991.295 39.436 991.295 39.852V44.012C991.295 44.46 991.365 44.764 991.503 44.924C991.642 45.084 991.882 45.164 992.223 45.164V45.5C992.042 45.4893 991.77 45.4787 991.407 45.468C991.045 45.4467 990.677 45.436 990.303 45.436C989.909 45.436 989.509 45.4467 989.103 45.468C988.698 45.4787 988.394 45.4893 988.191 45.5V45.164C988.586 45.164 988.863 45.084 989.023 44.924C989.194 44.764 989.279 44.46 989.279 44.012V38.972C989.279 38.492 989.199 38.14 989.039 37.916C988.89 37.6813 988.607 37.564 988.191 37.564V37.228C988.533 37.26 988.863 37.276 989.183 37.276C989.578 37.276 989.951 37.26 990.303 37.228C990.666 37.1853 990.997 37.1267 991.295 37.052V38.652C991.562 38.044 991.93 37.6173 992.399 37.372C992.869 37.1267 993.381 37.004 993.935 37.004ZM1000.95 34.604V37.244H1003V37.564H1000.95V43.932C1000.95 44.316 1001.02 44.588 1001.16 44.748C1001.3 44.908 1001.49 44.988 1001.75 44.988C1002 44.988 1002.22 44.8973 1002.42 44.716C1002.62 44.524 1002.81 44.2093 1002.97 43.772L1003.25 43.9C1003.09 44.4227 1002.84 44.86 1002.5 45.212C1002.17 45.5533 1001.7 45.724 1001.09 45.724C1000.73 45.724 1000.42 45.676 1000.17 45.58C999.92 45.4947 999.707 45.3667 999.526 45.196C999.291 44.9507 999.131 44.6573 999.046 44.316C998.971 43.9747 998.934 43.5213 998.934 42.956V37.564H997.526V37.244H998.934V35.02C999.318 35.0093 999.675 34.972 1000.01 34.908C1000.34 34.844 1000.65 34.7427 1000.95 34.604ZM1005.77 45.612C1005.32 45.612 1004.93 45.5267 1004.61 45.356C1004.29 45.1747 1004.05 44.9347 1003.89 44.636C1003.73 44.3267 1003.65 43.9853 1003.65 43.612C1003.65 43.1533 1003.75 42.78 1003.97 42.492C1004.18 42.1933 1004.45 41.9587 1004.78 41.788C1005.12 41.6067 1005.48 41.4573 1005.85 41.34C1006.23 41.212 1006.58 41.0947 1006.91 40.988C1007.24 40.8707 1007.51 40.7373 1007.73 40.588C1007.94 40.4387 1008.05 40.2413 1008.05 39.996V38.828C1008.05 38.4867 1007.99 38.2093 1007.89 37.996C1007.79 37.772 1007.64 37.6067 1007.44 37.5C1007.25 37.3827 1007 37.324 1006.7 37.324C1006.48 37.324 1006.24 37.356 1006 37.42C1005.75 37.484 1005.55 37.6067 1005.39 37.788C1005.67 37.8627 1005.88 38.0013 1006.03 38.204C1006.19 38.4067 1006.27 38.652 1006.27 38.94C1006.27 39.2707 1006.16 39.532 1005.93 39.724C1005.72 39.9053 1005.45 39.996 1005.12 39.996C1004.77 39.996 1004.5 39.884 1004.32 39.66C1004.14 39.436 1004.05 39.1747 1004.05 38.876C1004.05 38.5773 1004.12 38.332 1004.27 38.14C1004.42 37.9373 1004.63 37.756 1004.89 37.596C1005.16 37.4147 1005.5 37.2707 1005.92 37.164C1006.33 37.0573 1006.79 37.004 1007.28 37.004C1007.75 37.004 1008.16 37.0573 1008.53 37.164C1008.89 37.26 1009.2 37.436 1009.45 37.692C1009.71 37.9373 1009.88 38.2413 1009.95 38.604C1010.03 38.9667 1010.06 39.4093 1010.06 39.932V44.316C1010.06 44.5827 1010.09 44.7747 1010.16 44.892C1010.22 44.9987 1010.32 45.052 1010.46 45.052C1010.57 45.052 1010.67 45.0253 1010.77 44.972C1010.86 44.9187 1010.97 44.844 1011.09 44.748L1011.26 45.02C1011.03 45.2013 1010.78 45.3453 1010.53 45.452C1010.27 45.5587 1009.96 45.612 1009.6 45.612C1009.23 45.612 1008.93 45.5587 1008.7 45.452C1008.49 45.3453 1008.33 45.1907 1008.22 44.988C1008.13 44.7853 1008.07 44.5453 1008.06 44.268C1007.81 44.6947 1007.49 45.0253 1007.12 45.26C1006.75 45.4947 1006.3 45.612 1005.77 45.612ZM1006.73 44.716C1006.99 44.716 1007.23 44.6467 1007.44 44.508C1007.66 44.3693 1007.87 44.1613 1008.05 43.884V40.652C1007.94 40.812 1007.79 40.956 1007.58 41.084C1007.39 41.212 1007.18 41.34 1006.96 41.468C1006.73 41.596 1006.52 41.7453 1006.32 41.916C1006.13 42.076 1005.96 42.2787 1005.82 42.524C1005.69 42.7587 1005.63 43.0627 1005.63 43.436C1005.63 43.852 1005.73 44.172 1005.93 44.396C1006.14 44.6093 1006.4 44.716 1006.73 44.716ZM1015.82 37.004C1016.21 37.004 1016.58 37.052 1016.91 37.148C1017.25 37.2333 1017.54 37.356 1017.79 37.516C1018.04 37.676 1018.25 37.8787 1018.39 38.124C1018.54 38.3587 1018.62 38.62 1018.62 38.908C1018.62 39.26 1018.51 39.5427 1018.3 39.756C1018.09 39.9693 1017.82 40.076 1017.5 40.076C1017.17 40.076 1016.9 39.98 1016.68 39.788C1016.48 39.596 1016.38 39.34 1016.38 39.02C1016.38 38.7107 1016.47 38.4547 1016.65 38.252C1016.83 38.0493 1017.05 37.916 1017.31 37.852C1017.21 37.7133 1017.06 37.6013 1016.86 37.516C1016.66 37.42 1016.43 37.372 1016.19 37.372C1015.87 37.372 1015.58 37.4573 1015.32 37.628C1015.07 37.788 1014.84 38.0333 1014.65 38.364C1014.47 38.684 1014.33 39.084 1014.22 39.564C1014.12 40.0333 1014.07 40.5773 1014.07 41.196C1014.07 42.06 1014.18 42.7427 1014.38 43.244C1014.59 43.7453 1014.86 44.1027 1015.19 44.316C1015.53 44.5187 1015.88 44.62 1016.25 44.62C1016.47 44.62 1016.71 44.5773 1016.97 44.492C1017.23 44.4067 1017.48 44.2627 1017.72 44.06C1017.98 43.8573 1018.21 43.5693 1018.41 43.196L1018.71 43.308C1018.6 43.6813 1018.41 44.0547 1018.14 44.428C1017.88 44.8013 1017.55 45.1107 1017.13 45.356C1016.71 45.6013 1016.21 45.724 1015.61 45.724C1014.93 45.724 1014.31 45.5693 1013.75 45.26C1013.2 44.94 1012.76 44.46 1012.43 43.82C1012.11 43.18 1011.95 42.3853 1011.95 41.436C1011.95 40.4973 1012.11 39.7027 1012.44 39.052C1012.77 38.3907 1013.23 37.884 1013.82 37.532C1014.42 37.18 1015.08 37.004 1015.82 37.004ZM1022.64 34.604V37.244H1024.69V37.564H1022.64V43.932C1022.64 44.316 1022.71 44.588 1022.85 44.748C1022.98 44.908 1023.18 44.988 1023.44 44.988C1023.68 44.988 1023.91 44.8973 1024.11 44.716C1024.31 44.524 1024.49 44.2093 1024.65 43.772L1024.94 43.9C1024.78 44.4227 1024.53 44.86 1024.19 45.212C1023.86 45.5533 1023.39 45.724 1022.78 45.724C1022.42 45.724 1022.11 45.676 1021.85 45.58C1021.61 45.4947 1021.39 45.3667 1021.21 45.196C1020.98 44.9507 1020.82 44.6573 1020.73 44.316C1020.66 43.9747 1020.62 43.5213 1020.62 42.956V37.564H1019.21V37.244H1020.62V35.02C1021.01 35.0093 1021.36 34.972 1021.69 34.908C1022.02 34.844 1022.34 34.7427 1022.64 34.604ZM1036.64 37.052V43.772C1036.64 44.252 1036.72 44.6093 1036.88 44.844C1037.04 45.068 1037.32 45.18 1037.73 45.18V45.516C1037.4 45.484 1037.06 45.468 1036.73 45.468C1036.34 45.468 1035.96 45.484 1035.6 45.516C1035.25 45.548 1034.92 45.6067 1034.62 45.692V44.092C1034.36 44.6787 1033.99 45.1 1033.52 45.356C1033.06 45.6013 1032.56 45.724 1032.03 45.724C1031.61 45.724 1031.26 45.6653 1030.97 45.548C1030.7 45.4413 1030.47 45.292 1030.3 45.1C1030.12 44.8973 1029.99 44.6307 1029.92 44.3C1029.84 43.9693 1029.81 43.5427 1029.81 43.02V38.972C1029.81 38.492 1029.73 38.14 1029.57 37.916C1029.42 37.6813 1029.13 37.564 1028.72 37.564V37.228C1029.06 37.26 1029.39 37.276 1029.71 37.276C1030.1 37.276 1030.48 37.26 1030.83 37.228C1031.19 37.1853 1031.52 37.1267 1031.82 37.052V43.58C1031.82 43.868 1031.84 44.124 1031.89 44.348C1031.94 44.572 1032.04 44.7533 1032.19 44.892C1032.34 45.02 1032.56 45.084 1032.86 45.084C1033.19 45.084 1033.49 44.988 1033.76 44.796C1034.02 44.604 1034.23 44.3427 1034.38 44.012C1034.54 43.6813 1034.62 43.308 1034.62 42.892V38.972C1034.62 38.492 1034.54 38.14 1034.38 37.916C1034.23 37.6813 1033.95 37.564 1033.53 37.564V37.228C1033.88 37.26 1034.21 37.276 1034.53 37.276C1034.92 37.276 1035.29 37.26 1035.65 37.228C1036.01 37.1853 1036.34 37.1267 1036.64 37.052ZM1041.51 37.004C1041.96 37.004 1042.35 37.068 1042.67 37.196C1042.99 37.324 1043.22 37.436 1043.37 37.532C1043.73 37.7987 1043.95 37.628 1044.03 37.02H1044.38C1044.36 37.3293 1044.34 37.6973 1044.33 38.124C1044.32 38.54 1044.31 39.1 1044.31 39.804H1043.96C1043.91 39.4093 1043.81 39.0253 1043.66 38.652C1043.51 38.2787 1043.29 37.9693 1043 37.724C1042.71 37.468 1042.33 37.34 1041.87 37.34C1041.53 37.34 1041.26 37.436 1041.03 37.628C1040.82 37.82 1040.71 38.092 1040.71 38.444C1040.71 38.764 1040.81 39.0467 1041 39.292C1041.19 39.5267 1041.44 39.7507 1041.74 39.964C1042.05 40.1667 1042.37 40.3907 1042.7 40.636C1043.08 40.892 1043.42 41.1533 1043.72 41.42C1044.02 41.676 1044.26 41.964 1044.44 42.284C1044.62 42.5933 1044.71 42.9613 1044.71 43.388C1044.71 43.8787 1044.57 44.3 1044.3 44.652C1044.03 44.9933 1043.67 45.26 1043.23 45.452C1042.79 45.6333 1042.3 45.724 1041.77 45.724C1041.48 45.724 1041.22 45.6973 1040.99 45.644C1040.75 45.5907 1040.54 45.5213 1040.36 45.436C1040.22 45.3613 1040.09 45.292 1039.98 45.228C1039.87 45.164 1039.76 45.1107 1039.64 45.068C1039.53 45.0147 1039.44 45.036 1039.35 45.132C1039.28 45.228 1039.22 45.388 1039.18 45.612H1038.83C1038.85 45.2707 1038.86 44.8547 1038.87 44.364C1038.88 43.8733 1038.89 43.2227 1038.89 42.412H1039.24C1039.32 42.9987 1039.43 43.516 1039.58 43.964C1039.74 44.4013 1039.97 44.748 1040.27 45.004C1040.56 45.2493 1040.95 45.372 1041.42 45.372C1041.62 45.372 1041.81 45.3293 1041.99 45.244C1042.19 45.1587 1042.34 45.0253 1042.46 44.844C1042.59 44.6627 1042.65 44.4173 1042.65 44.108C1042.65 43.6387 1042.49 43.2493 1042.17 42.94C1041.85 42.6307 1041.45 42.3 1040.97 41.948C1040.61 41.6813 1040.27 41.42 1039.95 41.164C1039.64 40.908 1039.38 40.62 1039.18 40.3C1038.99 39.98 1038.89 39.6013 1038.89 39.164C1038.89 38.684 1039.01 38.2893 1039.26 37.98C1039.5 37.66 1039.82 37.42 1040.22 37.26C1040.62 37.0893 1041.05 37.004 1041.51 37.004Z" fill="white"/>
<rect x="1101.33" y="20" width="119.17" height="39.2" rx="15" fill="url(#paint0_linear_2_560)"/>
<path d="M1136.95 45V35.2H1141.23C1142.3 35.2 1143.23 35.4053 1144.03 35.816C1144.84 36.2267 1145.46 36.796 1145.91 37.524C1146.36 38.252 1146.58 39.1107 1146.58 40.1C1146.58 41.08 1146.36 41.9387 1145.91 42.676C1145.46 43.404 1144.84 43.9733 1144.03 44.384C1143.23 44.7947 1142.3 45 1141.23 45H1136.95ZM1138.77 43.46H1141.15C1141.89 43.46 1142.52 43.32 1143.05 43.04C1143.6 42.76 1144.01 42.368 1144.3 41.864C1144.6 41.36 1144.75 40.772 1144.75 40.1C1144.75 39.4187 1144.6 38.8307 1144.3 38.336C1144.01 37.832 1143.6 37.44 1143.05 37.16C1142.52 36.88 1141.89 36.74 1141.15 36.74H1138.77V43.46ZM1151.71 45.098C1150.94 45.098 1150.26 44.9347 1149.67 44.608C1149.07 44.272 1148.6 43.8147 1148.25 43.236C1147.91 42.6573 1147.73 41.9993 1147.73 41.262C1147.73 40.5153 1147.91 39.8573 1148.25 39.288C1148.6 38.7093 1149.07 38.2567 1149.67 37.93C1150.26 37.6033 1150.94 37.44 1151.71 37.44C1152.48 37.44 1153.17 37.6033 1153.77 37.93C1154.37 38.2567 1154.85 38.7047 1155.18 39.274C1155.53 39.8433 1155.7 40.506 1155.7 41.262C1155.7 41.9993 1155.53 42.6573 1155.18 43.236C1154.85 43.8147 1154.37 44.272 1153.77 44.608C1153.17 44.9347 1152.48 45.098 1151.71 45.098ZM1151.71 43.6C1152.14 43.6 1152.52 43.5067 1152.86 43.32C1153.19 43.1333 1153.45 42.8627 1153.64 42.508C1153.84 42.1533 1153.94 41.738 1153.94 41.262C1153.94 40.7767 1153.84 40.3613 1153.64 40.016C1153.45 39.6613 1153.19 39.3907 1152.86 39.204C1152.52 39.0173 1152.14 38.924 1151.72 38.924C1151.29 38.924 1150.91 39.0173 1150.58 39.204C1150.25 39.3907 1149.99 39.6613 1149.79 40.016C1149.6 40.3613 1149.5 40.7767 1149.5 41.262C1149.5 41.738 1149.6 42.1533 1149.79 42.508C1149.99 42.8627 1150.25 43.1333 1150.58 43.32C1150.91 43.5067 1151.29 43.6 1151.71 43.6ZM1161.61 37.44C1162.21 37.44 1162.74 37.5567 1163.21 37.79C1163.69 38.0233 1164.06 38.3827 1164.33 38.868C1164.6 39.344 1164.74 39.96 1164.74 40.716V45H1162.99V40.94C1162.99 40.2773 1162.83 39.7827 1162.51 39.456C1162.2 39.1293 1161.77 38.966 1161.21 38.966C1160.8 38.966 1160.43 39.05 1160.12 39.218C1159.8 39.386 1159.55 39.638 1159.37 39.974C1159.21 40.3007 1159.12 40.716 1159.12 41.22V45H1157.37V37.524H1159.04V39.54L1158.74 38.924C1159.01 38.448 1159.38 38.084 1159.88 37.832C1160.38 37.5707 1160.96 37.44 1161.61 37.44ZM1171.56 45V43.488L1171.46 43.166V40.52C1171.46 40.0067 1171.31 39.61 1171 39.33C1170.69 39.0407 1170.23 38.896 1169.6 38.896C1169.18 38.896 1168.77 38.9613 1168.36 39.092C1167.96 39.2227 1167.61 39.4047 1167.33 39.638L1166.65 38.364C1167.05 38.056 1167.53 37.8273 1168.08 37.678C1168.64 37.5193 1169.22 37.44 1169.81 37.44C1170.9 37.44 1171.73 37.7013 1172.32 38.224C1172.92 38.7373 1173.21 39.5353 1173.21 40.618V45H1171.56ZM1169.21 45.098C1168.65 45.098 1168.16 45.0047 1167.74 44.818C1167.32 44.622 1166.99 44.356 1166.76 44.02C1166.54 43.6747 1166.42 43.2873 1166.42 42.858C1166.42 42.438 1166.52 42.06 1166.72 41.724C1166.92 41.388 1167.26 41.122 1167.71 40.926C1168.17 40.73 1168.78 40.632 1169.53 40.632H1171.7V41.794H1169.66C1169.06 41.794 1168.66 41.892 1168.45 42.088C1168.25 42.2747 1168.15 42.508 1168.15 42.788C1168.15 43.1053 1168.27 43.3573 1168.52 43.544C1168.78 43.7307 1169.13 43.824 1169.57 43.824C1170 43.824 1170.39 43.726 1170.72 43.53C1171.07 43.334 1171.32 43.0447 1171.46 42.662L1171.76 43.712C1171.59 44.1507 1171.29 44.4913 1170.85 44.734C1170.42 44.9767 1169.87 45.098 1169.21 45.098ZM1178.27 45.098C1177.45 45.098 1176.82 44.888 1176.37 44.468C1175.92 44.0387 1175.7 43.4087 1175.7 42.578V35.872H1177.45V42.536C1177.45 42.8907 1177.54 43.166 1177.71 43.362C1177.9 43.558 1178.16 43.656 1178.48 43.656C1178.88 43.656 1179.2 43.5533 1179.46 43.348L1179.95 44.594C1179.75 44.762 1179.5 44.888 1179.2 44.972C1178.9 45.056 1178.59 45.098 1178.27 45.098ZM1174.47 38.98V37.58H1179.45V38.98H1174.47ZM1184.66 45.098C1183.83 45.098 1183.1 44.9347 1182.48 44.608C1181.86 44.272 1181.38 43.8147 1181.04 43.236C1180.7 42.6573 1180.53 41.9993 1180.53 41.262C1180.53 40.5153 1180.7 39.8573 1181.02 39.288C1181.36 38.7093 1181.82 38.2567 1182.39 37.93C1182.98 37.6033 1183.65 37.44 1184.4 37.44C1185.12 37.44 1185.77 37.5987 1186.34 37.916C1186.91 38.2333 1187.36 38.6813 1187.69 39.26C1188.01 39.8387 1188.18 40.52 1188.18 41.304C1188.18 41.3787 1188.17 41.4627 1188.16 41.556C1188.16 41.6493 1188.16 41.738 1188.15 41.822H1181.92V40.66H1187.22L1186.54 41.024C1186.55 40.5947 1186.46 40.2167 1186.27 39.89C1186.09 39.5633 1185.83 39.3067 1185.5 39.12C1185.18 38.9333 1184.82 38.84 1184.4 38.84C1183.97 38.84 1183.59 38.9333 1183.26 39.12C1182.94 39.3067 1182.69 39.568 1182.51 39.904C1182.33 40.2307 1182.24 40.618 1182.24 41.066V41.346C1182.24 41.794 1182.34 42.1907 1182.55 42.536C1182.75 42.8813 1183.04 43.1473 1183.42 43.334C1183.79 43.5207 1184.22 43.614 1184.7 43.614C1185.12 43.614 1185.5 43.5487 1185.84 43.418C1186.17 43.2873 1186.47 43.082 1186.73 42.802L1187.67 43.88C1187.34 44.272 1186.91 44.5753 1186.4 44.79C1185.89 44.9953 1185.32 45.098 1184.66 45.098Z" fill="white"/>
<path d="M1427.25 26.5901H1421.42C1419.81 26.5901 1418.5 27.8985 1418.5 29.5068V35.3401C1418.5 36.9484 1419.81 38.2568 1421.42 38.2568H1427.25C1428.86 38.2568 1430.17 36.9484 1430.17 35.3401V29.5068C1430.17 27.8985 1428.86 26.5901 1427.25 26.5901Z" fill="#B5995A"/>
<path d="M1407.42 38.2568H1413.25C1414.86 38.2568 1416.17 36.9484 1416.17 35.3401V29.5068C1416.17 27.8985 1414.86 26.5901 1413.25 26.5901H1407.42C1405.81 26.5901 1404.5 27.8985 1404.5 29.5068V35.3401C1404.5 36.9484 1405.81 38.2568 1407.42 38.2568Z" fill="#B5995A"/>
<path d="M1427.25 40.5901H1421.42C1419.81 40.5901 1418.5 41.8985 1418.5 43.5068V49.3401C1418.5 50.9484 1419.81 52.2568 1421.42 52.2568H1427.25C1428.86 52.2568 1430.17 50.9484 1430.17 49.3401V43.5068C1430.17 41.8985 1428.86 40.5901 1427.25 40.5901Z" fill="#B5995A"/>
<path d="M1407.42 52.2568H1413.25C1414.86 52.2568 1416.17 50.9484 1416.17 49.3401V43.5068C1416.17 41.8985 1414.86 40.5901 1413.25 40.5901H1407.42C1405.81 40.5901 1404.5 41.8985 1404.5 43.5068V49.3401C1404.5 50.9484 1405.81 52.2568 1407.42 52.2568Z" fill="#B5995A"/>
<defs>
<linearGradient id="paint0_linear_2_560" x1="1101.33" y1="39.6" x2="1220.5" y2="39.6" gradientUnits="userSpaceOnUse">
<stop stop-color="#F2E496"/>
<stop offset="0.475" stop-color="#B3892D"/>
<stop offset="1" stop-color="#BA983C"/>
</linearGradient>
</defs>
</svg>